<svg xmlns="http://www.w3.org/2000/svg" xmlns:xlink="http://www.w3.org/1999/xlink" width="1500" zoomAndPan="magnify" viewBox="0 0 1125 225" height="300" preserveAspectRatio="xMidYMid meet" version="1.0"><defs><g/><clipPath id="c2ff91f8b7"><path d="M 860 77 L 966 77 L 966 221.960938 L 860 221.960938 Z M 860 77 " clip-rule="nonzero"/></clipPath><clipPath id="dfc17599b8"><rect x="0" width="1125" y="0" height="222"/></clipPath></defs><g transform="matrix(1, 0, 0, 1, 0, 1)"><g clip-path="url(#dfc17599b8)"><g fill="#04da8d" fill-opacity="1"><g transform="translate(-8.717574, 179.540405)"><g><path d="M 80.203125 -52.015625 L 80.203125 -75.859375 L 141.78125 -75.859375 L 141.78125 -19.5 C 135.789062 -13.707031 127.117188 -8.609375 115.765625 -4.203125 C 104.410156 0.203125 92.910156 2.40625 81.265625 2.40625 C 66.460938 2.40625 53.5625 -0.695312 42.5625 -6.90625 C 31.5625 -13.113281 23.289062 -21.988281 17.75 -33.53125 C 12.21875 -45.082031 9.453125 -57.644531 9.453125 -71.21875 C 9.453125 -85.957031 12.539062 -99.050781 18.71875 -110.5 C 24.894531 -121.957031 33.9375 -130.742188 45.84375 -136.859375 C 54.914062 -141.554688 66.207031 -143.90625 79.71875 -143.90625 C 97.28125 -143.90625 111 -140.21875 120.875 -132.84375 C 130.757812 -125.476562 137.113281 -115.296875 139.9375 -102.296875 L 111.5625 -97 C 109.570312 -103.945312 105.828125 -109.429688 100.328125 -113.453125 C 94.828125 -117.472656 87.957031 -119.484375 79.71875 -119.484375 C 67.238281 -119.484375 57.3125 -115.523438 49.9375 -107.609375 C 42.570312 -99.691406 38.890625 -87.953125 38.890625 -72.390625 C 38.890625 -55.585938 42.617188 -42.988281 50.078125 -34.59375 C 57.546875 -26.195312 67.328125 -22 79.421875 -22 C 85.410156 -22 91.410156 -23.171875 97.421875 -25.515625 C 103.441406 -27.867188 108.609375 -30.71875 112.921875 -34.0625 L 112.921875 -52.015625 Z M 80.203125 -52.015625 "/></g></g></g><g fill="#ffffff" fill-opacity="1"><g transform="translate(145.034193, 179.540405)"><g><path d="M 14.1875 0 L 14.1875 -141.484375 L 41.3125 -141.484375 L 41.3125 0 Z M 14.1875 0 "/></g></g></g><g fill="#ffffff" fill-opacity="1"><g transform="translate(199.94942, 179.540405)"><g><path d="M 7.90625 -52.703125 C 7.90625 -61.703125 10.125 -70.414062 14.5625 -78.84375 C 19.007812 -87.28125 25.300781 -93.71875 33.4375 -98.15625 C 41.582031 -102.59375 50.671875 -104.8125 60.703125 -104.8125 C 76.210938 -104.8125 88.921875 -99.773438 98.828125 -89.703125 C 108.734375 -79.640625 113.6875 -66.914062 113.6875 -51.53125 C 113.6875 -36.03125 108.679688 -23.179688 98.671875 -12.984375 C 88.671875 -2.785156 76.082031 2.3125 60.90625 2.3125 C 51.507812 2.3125 42.546875 0.191406 34.015625 -4.046875 C 25.492188 -8.296875 19.007812 -14.519531 14.5625 -22.71875 C 10.125 -30.925781 7.90625 -40.921875 7.90625 -52.703125 Z M 35.703125 -51.25 C 35.703125 -41.082031 38.113281 -33.296875 42.9375 -27.890625 C 47.769531 -22.484375 53.722656 -19.78125 60.796875 -19.78125 C 67.878906 -19.78125 73.816406 -22.484375 78.609375 -27.890625 C 83.398438 -33.296875 85.796875 -41.144531 85.796875 -51.4375 C 85.796875 -61.476562 83.398438 -69.195312 78.609375 -74.59375 C 73.816406 -80 67.878906 -82.703125 60.796875 -82.703125 C 53.722656 -82.703125 47.769531 -80 42.9375 -74.59375 C 38.113281 -69.195312 35.703125 -61.414062 35.703125 -51.25 Z M 35.703125 -51.25 "/></g></g></g><g fill="#ffffff" fill-opacity="1"><g transform="translate(320.685711, 179.540405)"><g><path d="M 13.03125 0 L 13.03125 -141.484375 L 40.15625 -141.484375 L 40.15625 -90.53125 C 48.519531 -100.050781 58.425781 -104.8125 69.875 -104.8125 C 82.351562 -104.8125 92.675781 -100.289062 100.84375 -91.25 C 109.019531 -82.207031 113.109375 -69.226562 113.109375 -52.3125 C 113.109375 -34.8125 108.941406 -21.332031 100.609375 -11.875 C 92.273438 -2.414062 82.160156 2.3125 70.265625 2.3125 C 64.410156 2.3125 58.632812 0.847656 52.9375 -2.078125 C 47.238281 -5.003906 42.332031 -9.332031 38.21875 -15.0625 L 38.21875 0 Z M 39.953125 -53.46875 C 39.953125 -42.851562 41.625 -35.003906 44.96875 -29.921875 C 49.664062 -22.710938 55.910156 -19.109375 63.703125 -19.109375 C 69.679688 -19.109375 74.773438 -21.664062 78.984375 -26.78125 C 83.203125 -31.894531 85.3125 -39.953125 85.3125 -50.953125 C 85.3125 -62.660156 83.1875 -71.101562 78.9375 -76.28125 C 74.695312 -81.46875 69.265625 -84.0625 62.640625 -84.0625 C 56.140625 -84.0625 50.734375 -81.535156 46.421875 -76.484375 C 42.109375 -71.429688 39.953125 -63.757812 39.953125 -53.46875 Z M 39.953125 -53.46875 "/></g></g></g><g fill="#ffffff" fill-opacity="1"><g transform="translate(441.421988, 179.540405)"><g><path d="M 34.453125 -71.21875 L 9.84375 -75.671875 C 12.613281 -85.578125 17.375 -92.910156 24.125 -97.671875 C 30.882812 -102.429688 40.921875 -104.8125 54.234375 -104.8125 C 66.335938 -104.8125 75.347656 -103.378906 81.265625 -100.515625 C 87.179688 -97.648438 91.34375 -94.015625 93.75 -89.609375 C 96.164062 -85.203125 97.375 -77.113281 97.375 -65.34375 L 97.09375 -33.6875 C 97.09375 -24.675781 97.523438 -18.03125 98.390625 -13.75 C 99.265625 -9.46875 100.890625 -4.882812 103.265625 0 L 76.4375 0 C 75.726562 -1.800781 74.859375 -4.472656 73.828125 -8.015625 C 73.378906 -9.617188 73.054688 -10.679688 72.859375 -11.203125 C 68.234375 -6.691406 63.28125 -3.3125 58 -1.0625 C 52.726562 1.1875 47.097656 2.3125 41.109375 2.3125 C 30.554688 2.3125 22.238281 -0.546875 16.15625 -6.265625 C 10.082031 -11.992188 7.046875 -19.234375 7.046875 -27.984375 C 7.046875 -33.773438 8.425781 -38.9375 11.1875 -43.46875 C 13.957031 -48.007812 17.835938 -51.484375 22.828125 -53.890625 C 27.816406 -56.304688 35.003906 -58.414062 44.390625 -60.21875 C 57.066406 -62.601562 65.851562 -64.820312 70.75 -66.875 L 70.75 -69.578125 C 70.75 -74.796875 69.457031 -78.515625 66.875 -80.734375 C 64.300781 -82.953125 59.445312 -84.0625 52.3125 -84.0625 C 47.488281 -84.0625 43.722656 -83.113281 41.015625 -81.21875 C 38.316406 -79.320312 36.128906 -75.988281 34.453125 -71.21875 Z M 70.75 -49.21875 C 67.269531 -48.0625 61.765625 -46.675781 54.234375 -45.0625 C 46.710938 -43.457031 41.789062 -41.882812 39.46875 -40.34375 C 35.9375 -37.832031 34.171875 -34.644531 34.171875 -30.78125 C 34.171875 -26.988281 35.582031 -23.707031 38.40625 -20.9375 C 41.238281 -18.175781 44.84375 -16.796875 49.21875 -16.796875 C 54.113281 -16.796875 58.78125 -18.40625 63.21875 -21.625 C 66.5 -24.0625 68.65625 -27.050781 69.6875 -30.59375 C 70.394531 -32.90625 70.75 -37.3125 70.75 -43.8125 Z M 70.75 -49.21875 "/></g></g></g><g fill="#ffffff" fill-opacity="1"><g transform="translate(551.348969, 179.540405)"><g><path d="M 14.1875 0 L 14.1875 -141.484375 L 41.3125 -141.484375 L 41.3125 0 Z M 14.1875 0 "/></g></g></g><g fill="#ffffff" fill-opacity="1"><g transform="translate(606.264182, 179.540405)"><g><path d="M 14.765625 0 L 14.765625 -141.484375 L 43.328125 -141.484375 L 43.328125 -78.65625 L 101.046875 -141.484375 L 139.453125 -141.484375 L 86.1875 -86.375 L 142.359375 0 L 105.390625 0 L 66.5 -66.40625 L 43.328125 -42.75 L 43.328125 0 Z M 14.765625 0 "/></g></g></g><g fill="#ffffff" fill-opacity="1"><g transform="translate(749.005211, 179.540405)"><g><path d="M 73.546875 -32.625 L 100.5625 -28.078125 C 97.09375 -18.171875 91.609375 -10.628906 84.109375 -5.453125 C 76.609375 -0.273438 67.234375 2.3125 55.984375 2.3125 C 38.160156 2.3125 24.96875 -3.507812 16.40625 -15.15625 C 9.644531 -24.476562 6.265625 -36.25 6.265625 -50.46875 C 6.265625 -67.457031 10.703125 -80.757812 19.578125 -90.375 C 28.460938 -100 39.695312 -104.8125 53.28125 -104.8125 C 68.519531 -104.8125 80.546875 -99.773438 89.359375 -89.703125 C 98.179688 -79.640625 102.398438 -64.21875 102.015625 -43.4375 L 34.0625 -43.4375 C 34.257812 -35.382812 36.445312 -29.125 40.625 -24.65625 C 44.8125 -20.1875 50.023438 -17.953125 56.265625 -17.953125 C 60.515625 -17.953125 64.085938 -19.109375 66.984375 -21.421875 C 69.878906 -23.742188 72.066406 -27.476562 73.546875 -32.625 Z M 75.09375 -60.03125 C 74.894531 -67.882812 72.863281 -73.851562 69 -77.9375 C 65.144531 -82.019531 60.453125 -84.0625 54.921875 -84.0625 C 48.992188 -84.0625 44.101562 -81.90625 40.25 -77.59375 C 36.382812 -73.28125 34.484375 -67.425781 34.546875 -60.03125 Z M 75.09375 -60.03125 "/></g></g></g><g clip-path="url(#c2ff91f8b7)"><g fill="#ffffff" fill-opacity="1"><g transform="translate(858.932164, 179.540405)"><g><path d="M 1.34375 -102.5 L 30.203125 -102.5 L 54.71875 -29.71875 L 78.65625 -102.5 L 106.734375 -102.5 L 70.546875 -3.859375 L 64.078125 14 C 61.703125 19.976562 59.4375 24.539062 57.28125 27.6875 C 55.125 30.84375 52.644531 33.398438 49.84375 35.359375 C 47.050781 37.328125 43.609375 38.859375 39.515625 39.953125 C 35.429688 41.046875 30.816406 41.59375 25.671875 41.59375 C 20.460938 41.59375 15.347656 41.046875 10.328125 39.953125 L 7.90625 18.71875 C 12.15625 19.5625 15.988281 19.984375 19.40625 19.984375 C 25.707031 19.984375 30.367188 18.128906 33.390625 14.421875 C 36.410156 10.722656 38.726562 6.015625 40.34375 0.296875 Z M 1.34375 -102.5 "/></g></g></g></g><g fill="#ffffff" fill-opacity="1"><g transform="translate(968.859117, 179.540405)"><g><path d="M 4.625 -29.25 L 31.84375 -33.390625 C 33.007812 -28.117188 35.359375 -24.113281 38.890625 -21.375 C 42.429688 -18.644531 47.382812 -17.28125 53.75 -17.28125 C 60.769531 -17.28125 66.046875 -18.566406 69.578125 -21.140625 C 71.960938 -22.941406 73.15625 -25.351562 73.15625 -28.375 C 73.15625 -30.4375 72.507812 -32.140625 71.21875 -33.484375 C 69.875 -34.773438 66.851562 -35.96875 62.15625 -37.0625 C 40.28125 -41.882812 26.414062 -46.289062 20.5625 -50.28125 C 12.445312 -55.8125 8.390625 -63.5 8.390625 -73.34375 C 8.390625 -82.226562 11.894531 -89.691406 18.90625 -95.734375 C 25.925781 -101.785156 36.800781 -104.8125 51.53125 -104.8125 C 65.5625 -104.8125 75.984375 -102.523438 82.796875 -97.953125 C 89.617188 -93.390625 94.316406 -86.632812 96.890625 -77.6875 L 71.328125 -72.96875 C 70.234375 -76.957031 68.15625 -80.007812 65.09375 -82.125 C 62.039062 -84.25 57.679688 -85.3125 52.015625 -85.3125 C 44.878906 -85.3125 39.765625 -84.316406 36.671875 -82.328125 C 34.617188 -80.910156 33.59375 -79.078125 33.59375 -76.828125 C 33.59375 -74.890625 34.488281 -73.25 36.28125 -71.90625 C 38.726562 -70.101562 47.175781 -67.5625 61.625 -64.28125 C 76.070312 -61 86.15625 -56.976562 91.875 -52.21875 C 97.539062 -47.382812 100.375 -40.660156 100.375 -32.046875 C 100.375 -22.648438 96.445312 -14.570312 88.59375 -7.8125 C 80.75 -1.0625 69.132812 2.3125 53.75 2.3125 C 39.789062 2.3125 28.738281 -0.515625 20.59375 -6.171875 C 12.457031 -11.835938 7.132812 -19.53125 4.625 -29.25 Z M 4.625 -29.25 "/></g></g></g><g fill="#04da8d" fill-opacity="1"><g transform="translate(1078.793876, 179.540405)"><g><path d="M 14.1875 0 L 14.1875 -27.125 L 41.3125 -27.125 L 41.3125 0 Z M 14.1875 0 "/></g></g></g></g></g></svg>