<svg version="1.0" preserveAspectRatio="xMidYMid meet" height="250" viewBox="0 0 187.5 187.499992" zoomAndPan="magnify" width="250" xmlns:xlink="http://www.w3.org/1999/xlink" xmlns="http://www.w3.org/2000/svg"><defs><clipPath id="b03443edb2"><path clip-rule="nonzero" d="M 4.914062 24 L 182.191406 24 L 182.191406 163 L 4.914062 163 Z M 4.914062 24"></path></clipPath></defs><g clip-path="url(#b03443edb2)"><path fill-rule="nonzero" fill-opacity="1" d="M 71.238281 24.09375 L 71.238281 153.628906 L 100.132812 162.933594 L 100.132812 54.285156 C 100.132812 49.175781 102.386719 45.773438 106.019531 46.953125 C 110.691406 48.3125 111.617188 52.984375 111.617188 58.089844 L 111.617188 101.457031 C 129.644531 110.253906 143.824219 101.429688 143.824219 78.1875 C 143.824219 54.285156 135.519531 43.664062 111.066406 35.160156 C 101.40625 31.839844 83.523438 26.390625 71.269531 24.085938 Z M 105.613281 143.996094 L 152.101562 127.179688 C 157.371094 125.28125 158.183594 122.574219 153.917969 121.15625 C 149.59375 119.746094 141.828125 120.113281 136.492188 122.046875 L 105.464844 133.121094 L 105.464844 115.496094 L 107.21875 114.894531 C 107.21875 114.894531 116.101562 111.789062 128.730469 110.335938 C 141.25 109.015625 156.679688 110.566406 168.875 115.210938 C 182.519531 119.65625 183.957031 126.082031 180.496094 130.53125 C 177.066406 134.9375 168.53125 138.171875 168.53125 138.171875 L 105.464844 161.089844 L 105.464844 144.132812 Z M 18.269531 142.238281 C 4.222656 138.203125 1.917969 129.925781 8.285156 125.074219 C 14.199219 120.78125 24.203125 117.324219 24.203125 117.324219 L 65.667969 102.46875 L 65.667969 119.539062 L 35.96875 130.414062 C 30.75 132.40625 29.882812 135.085938 34.214844 136.496094 C 38.539062 137.941406 46.289062 137.628906 51.488281 135.632812 L 65.789062 130.414062 L 65.789062 145.722656 C 64.925781 145.925781 63.914062 146.039062 62.90625 146.269531 C 48.605469 148.699219 33.433594 147.714844 18.351562 142.726562 Z M 18.269531 142.238281" fill="#ffffff"></path></g></svg>