<svg xmlns="http://www.w3.org/2000/svg" xmlns:xlink="http://www.w3.org/1999/xlink" width="1500" zoomAndPan="magnify" viewBox="0 0 1125 225" height="300" preserveAspectRatio="xMidYMid meet" version="1.0"><defs><g/></defs><g fill="#04da8d" fill-opacity="1"><g transform="translate(123.066924, 180.830228)"><g><path d="M 14.484375 0 L 14.484375 -141.484375 L 74.609375 -141.484375 C 89.722656 -141.484375 100.707031 -140.210938 107.5625 -137.671875 C 114.414062 -135.128906 119.898438 -130.609375 124.015625 -124.109375 C 128.128906 -117.609375 130.1875 -110.175781 130.1875 -101.8125 C 130.1875 -91.195312 127.066406 -82.429688 120.828125 -75.515625 C 114.585938 -68.597656 105.257812 -64.238281 92.84375 -62.4375 C 99.019531 -58.832031 104.117188 -54.875 108.140625 -50.5625 C 112.160156 -46.257812 117.582031 -38.609375 124.40625 -27.609375 L 141.671875 0 L 107.515625 0 L 86.859375 -30.78125 C 79.523438 -41.789062 74.503906 -48.722656 71.796875 -51.578125 C 69.097656 -54.441406 66.234375 -56.40625 63.203125 -57.46875 C 60.179688 -58.53125 55.390625 -59.0625 48.828125 -59.0625 L 43.046875 -59.0625 L 43.046875 0 Z M 43.046875 -81.65625 L 64.1875 -81.65625 C 77.882812 -81.65625 86.4375 -82.234375 89.84375 -83.390625 C 93.257812 -84.546875 95.929688 -86.535156 97.859375 -89.359375 C 99.796875 -92.191406 100.765625 -95.734375 100.765625 -99.984375 C 100.765625 -104.742188 99.492188 -108.585938 96.953125 -111.515625 C 94.410156 -114.441406 90.820312 -116.289062 86.1875 -117.0625 C 83.863281 -117.382812 76.914062 -117.546875 65.34375 -117.546875 L 43.046875 -117.546875 Z M 43.046875 -81.65625 "/></g></g></g><g fill="#ffffff" fill-opacity="1"><g transform="translate(265.813015, 180.830228)"><g><path d="M 73.546875 -32.625 L 100.5625 -28.078125 C 97.09375 -18.171875 91.609375 -10.628906 84.109375 -5.453125 C 76.609375 -0.273438 67.234375 2.3125 55.984375 2.3125 C 38.160156 2.3125 24.96875 -3.507812 16.40625 -15.15625 C 9.644531 -24.476562 6.265625 -36.25 6.265625 -50.46875 C 6.265625 -67.457031 10.703125 -80.757812 19.578125 -90.375 C 28.460938 -100 39.695312 -104.8125 53.28125 -104.8125 C 68.519531 -104.8125 80.546875 -99.773438 89.359375 -89.703125 C 98.179688 -79.640625 102.398438 -64.21875 102.015625 -43.4375 L 34.0625 -43.4375 C 34.257812 -35.382812 36.445312 -29.125 40.625 -24.65625 C 44.8125 -20.1875 50.023438 -17.953125 56.265625 -17.953125 C 60.515625 -17.953125 64.085938 -19.109375 66.984375 -21.421875 C 69.878906 -23.742188 72.066406 -27.476562 73.546875 -32.625 Z M 75.09375 -60.03125 C 74.894531 -67.882812 72.863281 -73.851562 69 -77.9375 C 65.144531 -82.019531 60.453125 -84.0625 54.921875 -84.0625 C 48.992188 -84.0625 44.101562 -81.90625 40.25 -77.59375 C 36.382812 -73.28125 34.484375 -67.425781 34.546875 -60.03125 Z M 75.09375 -60.03125 "/></g></g><g transform="translate(375.743468, 180.830228)"><g><path d="M 33.296875 0 L 0.875 -102.5 L 27.21875 -102.5 L 46.421875 -35.328125 L 64.078125 -102.5 L 90.234375 -102.5 L 107.328125 -35.328125 L 126.90625 -102.5 L 153.640625 -102.5 L 120.734375 0 L 94.671875 0 L 77.015625 -65.921875 L 59.640625 0 Z M 33.296875 0 "/></g></g><g transform="translate(529.49168, 180.830228)"><g><path d="M 34.453125 -71.21875 L 9.84375 -75.671875 C 12.613281 -85.578125 17.375 -92.910156 24.125 -97.671875 C 30.882812 -102.429688 40.921875 -104.8125 54.234375 -104.8125 C 66.335938 -104.8125 75.347656 -103.378906 81.265625 -100.515625 C 87.179688 -97.648438 91.34375 -94.015625 93.75 -89.609375 C 96.164062 -85.203125 97.375 -77.113281 97.375 -65.34375 L 97.09375 -33.6875 C 97.09375 -24.675781 97.523438 -18.03125 98.390625 -13.75 C 99.265625 -9.46875 100.890625 -4.882812 103.265625 0 L 76.4375 0 C 75.726562 -1.800781 74.859375 -4.472656 73.828125 -8.015625 C 73.378906 -9.617188 73.054688 -10.679688 72.859375 -11.203125 C 68.234375 -6.691406 63.28125 -3.3125 58 -1.0625 C 52.726562 1.1875 47.097656 2.3125 41.109375 2.3125 C 30.554688 2.3125 22.238281 -0.546875 16.15625 -6.265625 C 10.082031 -11.992188 7.046875 -19.234375 7.046875 -27.984375 C 7.046875 -33.773438 8.425781 -38.9375 11.1875 -43.46875 C 13.957031 -48.007812 17.835938 -51.484375 22.828125 -53.890625 C 27.816406 -56.304688 35.003906 -58.414062 44.390625 -60.21875 C 57.066406 -62.601562 65.851562 -64.820312 70.75 -66.875 L 70.75 -69.578125 C 70.75 -74.796875 69.457031 -78.515625 66.875 -80.734375 C 64.300781 -82.953125 59.445312 -84.0625 52.3125 -84.0625 C 47.488281 -84.0625 43.722656 -83.113281 41.015625 -81.21875 C 38.316406 -79.320312 36.128906 -75.988281 34.453125 -71.21875 Z M 70.75 -49.21875 C 67.269531 -48.0625 61.765625 -46.675781 54.234375 -45.0625 C 46.710938 -43.457031 41.789062 -41.882812 39.46875 -40.34375 C 35.9375 -37.832031 34.171875 -34.644531 34.171875 -30.78125 C 34.171875 -26.988281 35.582031 -23.707031 38.40625 -20.9375 C 41.238281 -18.175781 44.84375 -16.796875 49.21875 -16.796875 C 54.113281 -16.796875 58.78125 -18.40625 63.21875 -21.625 C 66.5 -24.0625 68.65625 -27.050781 69.6875 -30.59375 C 70.394531 -32.90625 70.75 -37.3125 70.75 -43.8125 Z M 70.75 -49.21875 "/></g></g><g transform="translate(639.422133, 180.830228)"><g><path d="M 40.15625 0 L 13.03125 0 L 13.03125 -102.5 L 38.21875 -102.5 L 38.21875 -87.921875 C 42.53125 -94.804688 46.40625 -99.34375 49.84375 -101.53125 C 53.289062 -103.71875 57.203125 -104.8125 61.578125 -104.8125 C 67.753906 -104.8125 73.703125 -103.109375 79.421875 -99.703125 L 71.03125 -76.046875 C 66.46875 -79.003906 62.222656 -80.484375 58.296875 -80.484375 C 54.492188 -80.484375 51.273438 -79.4375 48.640625 -77.34375 C 46.003906 -75.257812 43.929688 -71.484375 42.421875 -66.015625 C 40.910156 -60.546875 40.15625 -49.09375 40.15625 -31.65625 Z M 40.15625 0 "/></g></g><g transform="translate(716.344497, 180.830228)"><g><path d="M 108.1875 0 L 83 0 L 83 -15.0625 C 78.820312 -9.195312 73.882812 -4.832031 68.1875 -1.96875 C 62.488281 0.882812 56.742188 2.3125 50.953125 2.3125 C 39.179688 2.3125 29.097656 -2.429688 20.703125 -11.921875 C 12.304688 -21.410156 8.109375 -34.648438 8.109375 -51.640625 C 8.109375 -69.003906 12.191406 -82.207031 20.359375 -91.25 C 28.535156 -100.289062 38.863281 -104.8125 51.34375 -104.8125 C 62.789062 -104.8125 72.695312 -100.050781 81.0625 -90.53125 L 81.0625 -141.484375 L 108.1875 -141.484375 Z M 35.8125 -53.46875 C 35.8125 -42.53125 37.320312 -34.613281 40.34375 -29.71875 C 44.71875 -22.644531 50.828125 -19.109375 58.671875 -19.109375 C 64.921875 -19.109375 70.234375 -21.757812 74.609375 -27.0625 C 78.984375 -32.375 81.171875 -40.304688 81.171875 -50.859375 C 81.171875 -62.628906 79.046875 -71.101562 74.796875 -76.28125 C 70.546875 -81.46875 65.109375 -84.0625 58.484375 -84.0625 C 52.046875 -84.0625 46.65625 -81.503906 42.3125 -76.390625 C 37.976562 -71.273438 35.8125 -63.632812 35.8125 -53.46875 Z M 35.8125 -53.46875 "/></g></g><g transform="translate(837.084617, 180.830228)"><g><path d="M 4.625 -29.25 L 31.84375 -33.390625 C 33.007812 -28.117188 35.359375 -24.113281 38.890625 -21.375 C 42.429688 -18.644531 47.382812 -17.28125 53.75 -17.28125 C 60.769531 -17.28125 66.046875 -18.566406 69.578125 -21.140625 C 71.960938 -22.941406 73.15625 -25.351562 73.15625 -28.375 C 73.15625 -30.4375 72.507812 -32.140625 71.21875 -33.484375 C 69.875 -34.773438 66.851562 -35.96875 62.15625 -37.0625 C 40.28125 -41.882812 26.414062 -46.289062 20.5625 -50.28125 C 12.445312 -55.8125 8.390625 -63.5 8.390625 -73.34375 C 8.390625 -82.226562 11.894531 -89.691406 18.90625 -95.734375 C 25.925781 -101.785156 36.800781 -104.8125 51.53125 -104.8125 C 65.5625 -104.8125 75.984375 -102.523438 82.796875 -97.953125 C 89.617188 -93.390625 94.316406 -86.632812 96.890625 -77.6875 L 71.328125 -72.96875 C 70.234375 -76.957031 68.15625 -80.007812 65.09375 -82.125 C 62.039062 -84.25 57.679688 -85.3125 52.015625 -85.3125 C 44.878906 -85.3125 39.765625 -84.316406 36.671875 -82.328125 C 34.617188 -80.910156 33.59375 -79.078125 33.59375 -76.828125 C 33.59375 -74.890625 34.488281 -73.25 36.28125 -71.90625 C 38.726562 -70.101562 47.175781 -67.5625 61.625 -64.28125 C 76.070312 -61 86.15625 -56.976562 91.875 -52.21875 C 97.539062 -47.382812 100.375 -40.660156 100.375 -32.046875 C 100.375 -22.648438 96.445312 -14.570312 88.59375 -7.8125 C 80.75 -1.0625 69.132812 2.3125 53.75 2.3125 C 39.789062 2.3125 28.738281 -0.515625 20.59375 -6.171875 C 12.457031 -11.835938 7.132812 -19.53125 4.625 -29.25 Z M 4.625 -29.25 "/></g></g></g><g fill="#04da8d" fill-opacity="1"><g transform="translate(947.023924, 180.830228)"><g><path d="M 14.1875 0 L 14.1875 -27.125 L 41.3125 -27.125 L 41.3125 0 Z M 14.1875 0 "/></g></g></g></svg>