<svg xmlns="http://www.w3.org/2000/svg" viewBox="0 0 24 24" fill="#4a8bc2"><path d="M15.387 17.944l-2.089-4.116h-2.069l2.976 5.908c.266.508.908.625 1.352.246l.003-.002 5.044-4.032v-2.9l-6.227.896zm-6.055-4.115L4.708 8.25H1.837l5.906 9.652a1 1 0 0 0 .768.398h2.378L5.332 13.83zm8.202-9.798c.084.085.156.179.215.281H22v1.5h-4.763l-.003 4.789 2.206-1.765v-2.6l-3.32 2.65-1.294-2.572a1.002 1.002 0 0 1-.004-.93l2.663-5.284-2.869.422-1.404 2.787a.998.998 0 0 1-.754.55L9.86 8.25H6.861l6.657-2.382a1 1 0 0 1 .657-.05l2.568.611z"/></svg>
