<svg xmlns="http://www.w3.org/2000/svg" viewBox="0 0 24 24" fill="#c0392b"><path d="M13.964 17.542c-1.64 0-2.954-.471-3.929-1.418-.976-.942-1.467-2.209-1.467-3.799 0-1.467.393-2.668 1.178-3.601.785-.938 1.852-1.409 3.193-1.409 1.378 0 2.457.471 3.231 1.418.774.942 1.16 2.224 1.16 3.846v.724H9.965c.058.925.373 1.668.941 2.23.569.557 1.277.834 2.124.834.79 0 1.49-.133 2.103-.403.614-.27 1.221-.702 1.824-1.3l1.26 1.352c-.92 1.011-2.044 1.78-3.373 2.304-1.333.525-2.725.787-4.179.787zm-1.14-9.44c-.765.932-1.144 2.018-1.144 3.258h5.847c-.035-2.737-.659-4.858-1.871-6.364-1.212-1.506-2.867-2.259-4.967-2.259-1.342 0-2.488.329-3.438.987-.95.658-1.7 1.565-2.25 2.721l1.867.756c.42-.803.996-1.432 1.73-1.889.734-.457 1.55-.686 2.45-.686.794 0 1.489.193 2.087.575.598.383 1.08.912 1.446 1.589.366.677.615 1.455.748 2.332H12.824z"/></svg>
