<svg xmlns="http://www.w3.org/2000/svg" viewBox="0 0 187.5 187.5"><path fill="#5c8fb3" d="M93.35 7.27C48.5 7.27 11.75 42.16 8.27 86.51l45.76 19.09c3.88-2.68 8.56-4.24 13.6-4.24.23 0 .47.01.7.02l10.55-15.28c0-.07 0-.14 0-.22 0-9.2 7.48-16.68 16.68-16.68s16.68 7.48 16.68 16.68-7.48 16.68-16.68 16.68c-.13 0-.25-.01-.38-.01l-15.04 10.73c.01.2.02.39.02.59 0 6.91-5.62 12.52-12.52 12.52-6.06 0-11.13-4.33-12.28-10.06L11.2 116.9c5.25 18.57 22.31 32.18 42.56 32.18 24.43 0 44.24-19.8 44.24-44.24 0-24.43-19.81-44.24-44.24-44.24zM61.77 138l-10.49-4.37c3.53 1.47 5.2 5.52 3.73 9.05-1.47 3.53-5.52 5.2-9.05 3.73-2.3-.96-4.13-2.76-5.1-5.07-.96-2.31-.95-4.86.02-7.19 2.22-4.56 7.42-6.91 12.06-5.26l5.61 2.32c3.53 1.47 5.2 5.52 3.73 9.05-1.47 3.52-5.52 5.19-9.05 3.72zm81.21-66.78c0-6.13-4.99-11.12-11.12-11.12s-11.12 4.99-11.12 11.12 4.99 11.11 11.12 11.11 11.12-4.98 11.12-11.11zm-19.45-.02c0-4.61 3.74-8.35 8.35-8.35s8.35 3.74 8.35 8.35-3.74 8.35-8.35 8.35-8.35-3.74-8.35-8.35z"/></svg>
