<svg version="1.0" preserveAspectRatio="xMidYMid meet" height="250" viewBox="0 0 187.5 187.499992" zoomAndPan="magnify" width="250" xmlns:xlink="http://www.w3.org/1999/xlink" xmlns="http://www.w3.org/2000/svg"><defs><clipPath id="e57f54732d"><path clip-rule="nonzero" d="M 8.265625 7.164062 L 178.808594 7.164062 L 178.808594 179.953125 L 8.265625 179.953125 Z M 8.265625 7.164062"></path></clipPath></defs><g clip-path="url(#e57f54732d)"><path fill-rule="nonzero" fill-opacity="1" d="M 93.347656 7.265625 C 48.496094 7.265625 11.753906 42.164062 8.265625 86.511719 L 54.023438 105.605469 C 57.902344 102.929688 62.589844 101.367188 67.625 101.367188 C 68.082031 101.367188 68.53125 101.378906 68.972656 101.40625 L 89.324219 71.632812 L 89.324219 71.214844 C 89.324219 53.300781 103.765625 38.722656 121.519531 38.722656 C 139.273438 38.722656 153.71875 53.300781 153.71875 71.214844 C 153.71875 89.128906 139.273438 103.714844 121.519531 103.714844 C 121.277344 103.714844 121.035156 103.707031 120.789062 103.703125 L 91.761719 124.59375 C 91.78125 124.980469 91.792969 125.371094 91.792969 125.75 C 91.792969 139.203125 80.949219 150.144531 67.625 150.144531 C 55.929688 150.144531 46.144531 141.714844 43.933594 130.558594 L 11.199219 116.902344 C 21.335938 153.070312 54.265625 179.582031 93.347656 179.582031 C 140.503906 179.582031 178.726562 141.003906 178.726562 93.425781 C 178.726562 45.839844 140.503906 7.265625 93.347656 7.265625 Z M 61.769531 137.996094 L 51.28125 133.625 C 53.136719 137.53125 56.355469 140.796875 60.625 142.59375 C 69.851562 146.476562 80.492188 142.058594 84.339844 132.738281 C 86.199219 128.230469 86.210938 123.253906 84.371094 118.730469 C 82.527344 114.210938 79.042969 110.683594 74.578125 108.804688 C 70.136719 106.941406 65.378906 107.011719 61.203125 108.601562 L 72.039062 113.125 C 78.847656 115.984375 82.066406 123.875 79.226562 130.742188 C 76.394531 137.609375 68.574219 140.859375 61.769531 137.996094 Z M 142.976562 71.21875 C 142.976562 59.28125 133.347656 49.5625 121.523438 49.5625 C 109.691406 49.5625 100.066406 59.28125 100.066406 71.21875 C 100.066406 83.152344 109.691406 92.867188 121.523438 92.867188 C 133.347656 92.867188 142.976562 83.152344 142.976562 71.21875 Z M 105.441406 71.179688 C 105.441406 62.199219 112.660156 54.917969 121.554688 54.917969 C 130.457031 54.917969 137.675781 62.199219 137.675781 71.179688 C 137.675781 80.160156 130.457031 87.441406 121.554688 87.441406 C 112.660156 87.441406 105.441406 80.160156 105.441406 71.179688 Z M 105.441406 71.179688" fill="#ffffff"></path></g></svg>