<svg version="1.0" preserveAspectRatio="xMidYMid meet" height="250" viewBox="0 0 187.5 187.499992" zoomAndPan="magnify" width="250" xmlns:xlink="http://www.w3.org/1999/xlink" xmlns="http://www.w3.org/2000/svg"><path fill-rule="nonzero" fill-opacity="1" d="M 93.5 33.894531 C 82.859375 27.554688 70.355469 23.0625 57.015625 21.21875 L 56.496094 21.164062 C 56.101562 21.132812 55.640625 21.117188 55.175781 21.117188 C 51.722656 21.117188 48.480469 22.019531 45.667969 23.601562 L 45.765625 23.550781 C 59.050781 14.34375 75.507812 8.839844 93.257812 8.839844 C 93.300781 8.839844 93.347656 8.839844 93.390625 8.839844 L 93.5 8.839844 C 93.527344 8.839844 93.5625 8.839844 93.601562 8.839844 C 111.394531 8.839844 127.902344 14.34375 141.515625 23.734375 L 141.234375 23.546875 C 138.539062 22.011719 135.308594 21.105469 131.867188 21.105469 C 131.386719 21.105469 130.914062 21.121094 130.445312 21.15625 L 130.507812 21.152344 C 116.648438 23.046875 104.144531 27.519531 93.035156 34.097656 L 93.5 33.84375 Z M 34.621094 33.011719 C 34.390625 33.089844 34.1875 33.191406 34.003906 33.3125 L 34.011719 33.308594 C 18.46875 48.65625 8.839844 69.96875 8.839844 93.527344 C 8.839844 113.726562 15.921875 132.277344 27.738281 146.832031 L 27.617188 146.671875 C 17.730469 128.292969 52.867188 76.472656 70.507812 55.59375 C 50.613281 35.75 40.765625 32.699219 36.605469 32.699219 C 36.550781 32.699219 36.488281 32.695312 36.425781 32.695312 C 35.777344 32.695312 35.15625 32.8125 34.589844 33.03125 L 34.621094 33.019531 Z M 116.511719 55.59375 C 134.148438 76.484375 169.308594 128.347656 159.375 146.683594 C 171.070312 132.289062 178.15625 113.738281 178.15625 93.53125 C 178.15625 69.96875 168.523438 48.65625 152.980469 33.3125 L 152.96875 33.304688 C 152.804688 33.183594 152.613281 33.082031 152.40625 33.011719 L 152.386719 33.003906 C 151.824219 32.800781 151.171875 32.6875 150.492188 32.6875 C 150.464844 32.6875 150.433594 32.6875 150.402344 32.6875 L 150.410156 32.6875 C 146.234375 32.6875 136.402344 35.75 116.511719 55.589844 Z M 37.777344 157.222656 C 52.585938 170.222656 72.121094 178.15625 93.511719 178.15625 C 114.898438 178.15625 134.4375 170.226562 149.339844 157.144531 L 149.242188 157.230469 C 162.480469 143.742188 118.796875 95.789062 93.5 76.6875 C 68.230469 95.792969 24.511719 143.742188 37.777344 157.230469 Z M 37.777344 157.222656" fill="#ffffff"></path></svg>